<svg xmlns="http://www.w3.org/2000/svg" viewBox="0 0 160 160" role="img" aria-labelledby="title desc">
  <title id="title">BenchAtlas logo</title>
  <desc id="desc">An atlas mark with benchmark ranking lines and a model point.</desc>
  <rect width="160" height="160" rx="24" fill="#17140f"/>
  <path d="M38 35h84c9.4 0 17 7.6 17 17v56c0 9.4-7.6 17-17 17H88l-8 17-8-17H38c-9.4 0-17-7.6-17-17V52c0-9.4 7.6-17 17-17Z" fill="#fffdf7"/>
  <path d="M42 59h76M42 81h76M42 103h76" fill="none" stroke="#ddd7ca" stroke-width="5" stroke-linecap="round"/>
  <path d="M50 103V69M76 103V51M102 103V78" fill="none" stroke="#0f766e" stroke-width="9" stroke-linecap="round"/>
  <path d="M42 103h76" fill="none" stroke="#17140f" stroke-width="5" stroke-linecap="round"/>
  <circle cx="118" cy="55" r="13" fill="#b42318"/>
  <path d="M111 55h14M118 48v14" fill="none" stroke="#fffdf7" stroke-width="4" stroke-linecap="round"/>
</svg>
