<svg xmlns="http://www.w3.org/2000/svg" width="1200" height="630" viewBox="0 0 1200 630" role="img" aria-labelledby="title desc">
  <title id="title">BenchAtlas social preview</title>
  <desc id="desc">BenchAtlas maps AI benchmark results, evaluation protocols, and source evidence.</desc>
  <rect width="1200" height="630" fill="#f7f3e8"/>
  <g opacity=".42" stroke="#ddd7ca">
    <path d="M0 70h1200M0 140h1200M0 210h1200M0 280h1200M0 350h1200M0 420h1200M0 490h1200M0 560h1200"/>
    <path d="M80 0v630M160 0v630M240 0v630M320 0v630M400 0v630M480 0v630M560 0v630M640 0v630M720 0v630M800 0v630M880 0v630M960 0v630M1040 0v630M1120 0v630"/>
  </g>
  <rect x="72" y="72" width="188" height="188" rx="30" fill="#17140f"/>
  <g fill="none" stroke="#fffdf7" stroke-width="8" opacity=".9">
    <ellipse cx="166" cy="166" rx="66" ry="82"/>
    <ellipse cx="166" cy="166" rx="28" ry="82"/>
    <path d="M100 136h132M100 196h132"/>
  </g>
  <path d="M115 207h102" fill="none" stroke="#fffdf7" stroke-width="9" stroke-linecap="round"/>
  <path d="M124 196v-25M164 196v-49M204 196v-70" fill="none" stroke="#0f766e" stroke-width="14" stroke-linecap="round"/>
  <circle cx="215" cy="116" r="20" fill="#b42318"/>
  <circle cx="215" cy="116" r="7" fill="#fffdf7"/>
  <text x="310" y="150" fill="#0f766e" font-family="Arial, Helvetica, sans-serif" font-size="24" font-weight="700">EVIDENCE-BACKED AI BENCHMARKS</text>
  <text x="304" y="245" fill="#17140f" font-family="Georgia, 'Times New Roman', serif" font-size="92" font-weight="700">BenchAtlas</text>
  <text x="310" y="312" fill="#6f695f" font-family="Arial, Helvetica, sans-serif" font-size="31">Scores · protocols · sources · model rankings</text>
  <g transform="translate(310 375)" font-family="Arial, Helvetica, sans-serif">
    <rect width="190" height="78" rx="8" fill="#fffdf7" stroke="#ddd7ca"/>
    <text x="20" y="35" fill="#17140f" font-size="28" font-weight="700">1,681</text>
    <text x="20" y="60" fill="#6f695f" font-size="16">RESULT ROWS</text>
    <rect x="210" width="155" height="78" rx="8" fill="#fffdf7" stroke="#ddd7ca"/>
    <text x="230" y="35" fill="#17140f" font-size="28" font-weight="700">65</text>
    <text x="230" y="60" fill="#6f695f" font-size="16">MODELS</text>
    <rect x="385" width="190" height="78" rx="8" fill="#fffdf7" stroke="#ddd7ca"/>
    <text x="405" y="35" fill="#17140f" font-size="28" font-weight="700">410</text>
    <text x="405" y="60" fill="#6f695f" font-size="16">BENCHMARKS</text>
  </g>
  <text x="310" y="530" fill="#17140f" font-family="Arial, Helvetica, sans-serif" font-size="24" font-weight="700">benchatlas.cn</text>
  <text x="310" y="565" fill="#6f695f" font-family="Arial, Helvetica, sans-serif" font-size="19">Every reported result stays connected to its evidence.</text>
</svg>
